<svg xmlns="http://www.w3.org/2000/svg" viewBox="0 0 242 56" width="484" height="112" style="image-rendering:pixelated">
  <!-- Mascot at scale 4 -->
  <g transform="translate(4, 4) scale(4)">
    <rect x="7" y="2" width="2" height="2" fill="#1D9E75"/>
    <rect x="4" y="4" width="8" height="2" fill="#1D9E75"/>
    <rect x="3" y="6" width="10" height="5" fill="#1D9E75"/>
    <rect x="5" y="7" width="2" height="2" fill="#0a1a14"/>
    <rect x="9" y="7" width="2" height="2" fill="#0a1a14"/>
    <rect x="4" y="11" width="2" height="2" fill="#1D9E75"/>
    <rect x="10" y="11" width="2" height="2" fill="#1D9E75"/>
  </g>
  <!-- Pixel text "sonde" — pixel size 6, starting at x=68 -->
  <!-- s -->
  <rect x="74" y="18" width="6" height="6" fill="#1D9E75"/><rect x="80" y="18" width="6" height="6" fill="#1D9E75"/><rect x="86" y="18" width="6" height="6" fill="#1D9E75"/>
  <rect x="68" y="24" width="6" height="6" fill="#1D9E75"/>
  <rect x="74" y="30" width="6" height="6" fill="#1D9E75"/><rect x="80" y="30" width="6" height="6" fill="#1D9E75"/><rect x="86" y="30" width="6" height="6" fill="#1D9E75"/>
  <rect x="92" y="36" width="6" height="6" fill="#1D9E75"/>
  <rect x="74" y="42" width="6" height="6" fill="#1D9E75"/><rect x="80" y="42" width="6" height="6" fill="#1D9E75"/><rect x="86" y="42" width="6" height="6" fill="#1D9E75"/>
  <!-- o -->
  <rect x="110" y="18" width="6" height="6" fill="#1D9E75"/><rect x="116" y="18" width="6" height="6" fill="#1D9E75"/><rect x="122" y="18" width="6" height="6" fill="#1D9E75"/>
  <rect x="104" y="24" width="6" height="6" fill="#1D9E75"/><rect x="128" y="24" width="6" height="6" fill="#1D9E75"/>
  <rect x="104" y="30" width="6" height="6" fill="#1D9E75"/><rect x="128" y="30" width="6" height="6" fill="#1D9E75"/>
  <rect x="104" y="36" width="6" height="6" fill="#1D9E75"/><rect x="128" y="36" width="6" height="6" fill="#1D9E75"/>
  <rect x="110" y="42" width="6" height="6" fill="#1D9E75"/><rect x="116" y="42" width="6" height="6" fill="#1D9E75"/><rect x="122" y="42" width="6" height="6" fill="#1D9E75"/>
  <!-- n -->
  <rect x="140" y="18" width="6" height="6" fill="#1D9E75"/><rect x="152" y="18" width="6" height="6" fill="#1D9E75"/><rect x="158" y="18" width="6" height="6" fill="#1D9E75"/>
  <rect x="140" y="24" width="6" height="6" fill="#1D9E75"/><rect x="146" y="24" width="6" height="6" fill="#1D9E75"/><rect x="164" y="24" width="6" height="6" fill="#1D9E75"/>
  <rect x="140" y="30" width="6" height="6" fill="#1D9E75"/><rect x="164" y="30" width="6" height="6" fill="#1D9E75"/>
  <rect x="140" y="36" width="6" height="6" fill="#1D9E75"/><rect x="164" y="36" width="6" height="6" fill="#1D9E75"/>
  <rect x="140" y="42" width="6" height="6" fill="#1D9E75"/><rect x="164" y="42" width="6" height="6" fill="#1D9E75"/>
  <!-- d -->
  <rect x="200" y="6" width="6" height="6" fill="#1D9E75"/>
  <rect x="200" y="12" width="6" height="6" fill="#1D9E75"/>
  <rect x="182" y="18" width="6" height="6" fill="#1D9E75"/><rect x="188" y="18" width="6" height="6" fill="#1D9E75"/><rect x="194" y="18" width="6" height="6" fill="#1D9E75"/><rect x="200" y="18" width="6" height="6" fill="#1D9E75"/>
  <rect x="176" y="24" width="6" height="6" fill="#1D9E75"/><rect x="200" y="24" width="6" height="6" fill="#1D9E75"/>
  <rect x="176" y="30" width="6" height="6" fill="#1D9E75"/><rect x="200" y="30" width="6" height="6" fill="#1D9E75"/>
  <rect x="176" y="36" width="6" height="6" fill="#1D9E75"/><rect x="200" y="36" width="6" height="6" fill="#1D9E75"/>
  <rect x="182" y="42" width="6" height="6" fill="#1D9E75"/><rect x="188" y="42" width="6" height="6" fill="#1D9E75"/><rect x="194" y="42" width="6" height="6" fill="#1D9E75"/><rect x="200" y="42" width="6" height="6" fill="#1D9E75"/>
  <!-- e -->
  <rect x="218" y="18" width="6" height="6" fill="#1D9E75"/><rect x="224" y="18" width="6" height="6" fill="#1D9E75"/><rect x="230" y="18" width="6" height="6" fill="#1D9E75"/>
  <rect x="212" y="24" width="6" height="6" fill="#1D9E75"/><rect x="236" y="24" width="6" height="6" fill="#1D9E75"/>
  <rect x="212" y="30" width="6" height="6" fill="#1D9E75"/><rect x="218" y="30" width="6" height="6" fill="#1D9E75"/><rect x="224" y="30" width="6" height="6" fill="#1D9E75"/><rect x="230" y="30" width="6" height="6" fill="#1D9E75"/><rect x="236" y="30" width="6" height="6" fill="#1D9E75"/>
  <rect x="212" y="36" width="6" height="6" fill="#1D9E75"/>
  <rect x="218" y="42" width="6" height="6" fill="#1D9E75"/><rect x="224" y="42" width="6" height="6" fill="#1D9E75"/><rect x="230" y="42" width="6" height="6" fill="#1D9E75"/>
</svg>
