<svg xmlns="http://www.w3.org/2000/svg" viewBox="0 0 512 512" width="512" height="512" style="image-rendering:pixelated">
  <rect width="512" height="512" rx="80" fill="#1e2228"/>
  <!-- Mascot -->
  <g transform="translate(91, 20) scale(22)">
    <rect x="7" y="2" width="2" height="2" fill="#1D9E75"/>
    <rect x="4" y="4" width="8" height="2" fill="#1D9E75"/>
    <rect x="3" y="6" width="10" height="5" fill="#1D9E75"/>
    <rect x="5" y="7" width="2" height="2" fill="#0a1a14"/>
    <rect x="9" y="7" width="2" height="2" fill="#0a1a14"/>
    <rect x="4" y="11" width="2" height="2" fill="#1D9E75"/>
    <rect x="10" y="11" width="2" height="2" fill="#1D9E75"/>
  </g>
  <!-- Pixel text: "sonde" — 5x7 grid per letter, pixel size 15 -->
  <!-- s -->
  <rect x="54" y="375" width="15" height="15" fill="#1D9E75"/>
  <rect x="69" y="375" width="15" height="15" fill="#1D9E75"/>
  <rect x="84" y="375" width="15" height="15" fill="#1D9E75"/>
  <rect x="39" y="390" width="15" height="15" fill="#1D9E75"/>
  <rect x="54" y="405" width="15" height="15" fill="#1D9E75"/>
  <rect x="69" y="405" width="15" height="15" fill="#1D9E75"/>
  <rect x="84" y="405" width="15" height="15" fill="#1D9E75"/>
  <rect x="99" y="420" width="15" height="15" fill="#1D9E75"/>
  <rect x="54" y="435" width="15" height="15" fill="#1D9E75"/>
  <rect x="69" y="435" width="15" height="15" fill="#1D9E75"/>
  <rect x="84" y="435" width="15" height="15" fill="#1D9E75"/>
  <!-- o -->
  <rect x="144" y="375" width="15" height="15" fill="#1D9E75"/>
  <rect x="159" y="375" width="15" height="15" fill="#1D9E75"/>
  <rect x="174" y="375" width="15" height="15" fill="#1D9E75"/>
  <rect x="129" y="390" width="15" height="15" fill="#1D9E75"/>
  <rect x="189" y="390" width="15" height="15" fill="#1D9E75"/>
  <rect x="129" y="405" width="15" height="15" fill="#1D9E75"/>
  <rect x="189" y="405" width="15" height="15" fill="#1D9E75"/>
  <rect x="129" y="420" width="15" height="15" fill="#1D9E75"/>
  <rect x="189" y="420" width="15" height="15" fill="#1D9E75"/>
  <rect x="144" y="435" width="15" height="15" fill="#1D9E75"/>
  <rect x="159" y="435" width="15" height="15" fill="#1D9E75"/>
  <rect x="174" y="435" width="15" height="15" fill="#1D9E75"/>
  <!-- n -->
  <rect x="219" y="375" width="15" height="15" fill="#1D9E75"/>
  <rect x="249" y="375" width="15" height="15" fill="#1D9E75"/>
  <rect x="264" y="375" width="15" height="15" fill="#1D9E75"/>
  <rect x="219" y="390" width="15" height="15" fill="#1D9E75"/>
  <rect x="234" y="390" width="15" height="15" fill="#1D9E75"/>
  <rect x="279" y="390" width="15" height="15" fill="#1D9E75"/>
  <rect x="219" y="405" width="15" height="15" fill="#1D9E75"/>
  <rect x="279" y="405" width="15" height="15" fill="#1D9E75"/>
  <rect x="219" y="420" width="15" height="15" fill="#1D9E75"/>
  <rect x="279" y="420" width="15" height="15" fill="#1D9E75"/>
  <rect x="219" y="435" width="15" height="15" fill="#1D9E75"/>
  <rect x="279" y="435" width="15" height="15" fill="#1D9E75"/>
  <!-- d -->
  <rect x="369" y="345" width="15" height="15" fill="#1D9E75"/>
  <rect x="369" y="360" width="15" height="15" fill="#1D9E75"/>
  <rect x="324" y="375" width="15" height="15" fill="#1D9E75"/>
  <rect x="339" y="375" width="15" height="15" fill="#1D9E75"/>
  <rect x="354" y="375" width="15" height="15" fill="#1D9E75"/>
  <rect x="369" y="375" width="15" height="15" fill="#1D9E75"/>
  <rect x="309" y="390" width="15" height="15" fill="#1D9E75"/>
  <rect x="369" y="390" width="15" height="15" fill="#1D9E75"/>
  <rect x="309" y="405" width="15" height="15" fill="#1D9E75"/>
  <rect x="369" y="405" width="15" height="15" fill="#1D9E75"/>
  <rect x="309" y="420" width="15" height="15" fill="#1D9E75"/>
  <rect x="369" y="420" width="15" height="15" fill="#1D9E75"/>
  <rect x="324" y="435" width="15" height="15" fill="#1D9E75"/>
  <rect x="339" y="435" width="15" height="15" fill="#1D9E75"/>
  <rect x="354" y="435" width="15" height="15" fill="#1D9E75"/>
  <rect x="369" y="435" width="15" height="15" fill="#1D9E75"/>
  <!-- e -->
  <rect x="414" y="375" width="15" height="15" fill="#1D9E75"/>
  <rect x="429" y="375" width="15" height="15" fill="#1D9E75"/>
  <rect x="444" y="375" width="15" height="15" fill="#1D9E75"/>
  <rect x="399" y="390" width="15" height="15" fill="#1D9E75"/>
  <rect x="459" y="390" width="15" height="15" fill="#1D9E75"/>
  <rect x="399" y="405" width="15" height="15" fill="#1D9E75"/>
  <rect x="414" y="405" width="15" height="15" fill="#1D9E75"/>
  <rect x="429" y="405" width="15" height="15" fill="#1D9E75"/>
  <rect x="444" y="405" width="15" height="15" fill="#1D9E75"/>
  <rect x="459" y="405" width="15" height="15" fill="#1D9E75"/>
  <rect x="399" y="420" width="15" height="15" fill="#1D9E75"/>
  <rect x="414" y="435" width="15" height="15" fill="#1D9E75"/>
  <rect x="429" y="435" width="15" height="15" fill="#1D9E75"/>
  <rect x="444" y="435" width="15" height="15" fill="#1D9E75"/>
</svg>
